<?xml version="1.0" encoding="UTF-8"?>
<svg width="58px" height="55px" viewBox="0 0 58 55" version="1.1" xmlns="http://www.w3.org/2000/svg" xmlns:xlink="http://www.w3.org/1999/xlink">
    <!-- Generator: sketchtool 54.1 (76490) - https://sketchapp.com -->
    <title>DCD77CB4-114D-485F-AD60-5955B51D63B0</title>
    <desc>Created with sketchtool.</desc>
    <defs>
        <polygon id="path-1" points="0 0.303355767 57.8279031 0.303355767 57.8279031 55 0 55"></polygon>
    </defs>
    <g id="Page-1" stroke="none" stroke-width="1" fill="none" fill-rule="evenodd">
        <g id="Rescate-Copy" transform="translate(-31.000000, -29.000000)">
            <g id="Group-4" transform="translate(31.000000, 29.000000)">
                <g id="Group-8">
                    <path d="M10.9134471,12.0391044 C11.2423355,12.0347044 11.5814307,12.0798046 11.9193919,12.1799051 C12.256219,12.2811055 12.5624254,12.4285062 12.8312066,12.611107 C13.2009225,12.8630081 13.7917876,12.7024074 13.8258105,12.156805 C13.8847836,11.1712005 13.414133,10.3054967 12.6066552,10.0645956 C11.7980434,9.8225945 10.8975697,10.2790965 10.3645437,11.1239003 C10.0685441,11.5914024 10.4598079,12.0457045 10.9134471,12.0391044 Z" id="Fill-1" fill="#FFFFFF"></path>
                    <path d="M45.5250436,12.9228902 C45.8671249,12.9081774 46.1992747,12.9523159 46.5071478,13.0467234 C46.9319907,13.177913 47.4197323,12.796605 47.2619336,12.2117692 C46.9794407,11.1561222 46.2522421,10.4168015 45.4290402,10.4560358 C44.6058382,10.494044 43.938228,11.2983464 43.7384967,12.3760627 C43.6270444,12.9731592 44.1423732,13.3078765 44.5561812,13.1374526 C44.8552264,13.0148456 45.1807554,12.9388292 45.5250436,12.9228902 Z" id="Fill-3" fill="#FFFFFF"></path>
                    <g id="Group-7">
                        <mask id="mask-2" fill="white">
                            <use xlink:href="#path-1"></use>
                        </mask>
                        <g id="Clip-6"></g>
                        <path d="M57.0726824,52.7691098 C57.5685255,52.0054545 57.8232706,51.1181818 57.8278196,50.2355303 C57.8426039,47.7042614 55.8922118,45.4028977 52.4372314,45.1498864 C52.3883294,45.137178 52.3382902,45.1267803 52.2871137,45.1210038 C47.6926039,40.3357386 45.6364471,28.7977273 46.9317804,21.880928 C51.1396235,21.575928 54.1112706,19.112822 55.2405647,14.8844129 C55.7386824,13.0151326 54.8811922,11.5675379 53.0900157,11.2151705 C52.2120549,11.041875 51.6297804,10.5139015 51.3124863,9.60236742 C51.302251,9.57348485 51.2908784,9.54460227 51.2783686,9.516875 C49.6031922,5.73210227 46.6690745,5.2480303 44.7220941,5.06433712 C44.7220941,5.05625 44.7289176,5.04123106 44.7220941,5.04123106 C44.0181333,5.07820076 43.1447216,5.07011364 43.6144078,4.55484848 C44.8653882,3.17772727 45.0871529,2.52498106 45.2327216,2.02242424 C45.555702,0.913333333 44.3843294,0.179715909 43.5029569,0.320662879 C38.6639373,1.09471591 33.8999765,5.40168561 31.3616235,11.2660038 C31.0306824,12.0319697 30.4654667,13.3467045 29.7603686,15.0346023 C28.8880941,12.8972917 27.1151137,7.75041667 21.9417412,5.01465909 C19.6626824,3.80967803 17.4200157,3.42265152 15.0715843,3.55551136 C13.1120941,3.66410985 9.0373098,3.88823864 6.81397647,8.81791667 C6.74574118,8.88376894 6.20895686,9.33549242 3.89464314,9.57117424 C2.47534902,9.71558712 1.16068235,9.69594697 1.14703529,9.69479167 L1.13338824,9.69479167 C0.519270588,9.69132576 0.0154666667,10.1846402 0.00295686275,10.8027273 C-0.114180392,17.206572 2.74601569,20.0116477 4.89656471,21.2143182 C4.89883922,21.2154735 4.90225098,21.2177841 4.90452549,21.2189394 C6.19985882,22.0126326 7.83864314,22.2067235 9.36142745,22.2148106 C10.1870745,22.2205871 10.9399373,22.1709091 11.5006039,22.1177652 C11.9066039,24.7969129 12.6321725,35.6301894 7.24044706,44.8934091 C3.81048627,45.1290909 1.8680549,47.4085038 1.85327059,49.9132008 C1.84872157,50.7970076 2.09323137,51.6865909 2.57997647,52.4560227 C2.57997647,52.4560227 3.77978039,54.7192614 7.48040784,54.7412121 C8.12523137,54.744678 18.1535451,54.8024432 19.5603294,54.8116856 C20.1812706,54.8151515 20.687349,54.3114394 20.6907608,53.6887311 C20.6941725,53.0660227 20.1937804,52.5565341 19.5728392,52.5530682 C18.1728784,52.5461364 8.3515451,52.4895265 7.12103529,52.4825947 C5.02507451,52.4698864 4.0948,51.1898106 4.10162353,49.9270644 C4.11072157,48.3177273 5.51636863,47.1913068 7.66919216,47.1358523 C8.6540549,47.3611364 9.84589804,47.9307008 10.3280941,49.3367045 C10.5316627,49.9282197 11.1730745,50.2401515 11.7576235,50.0368182 C12.3455843,49.8346402 12.6571922,49.1911364 12.455898,48.6030871 C11.9566431,47.1497159 10.943349,46.0510227 9.53883922,45.3994318 C14.5939373,36.2528977 14.2743686,25.6760985 13.7489569,22.0530682 C13.6511529,21.3841477 13.3952706,20.5442424 13.3440941,20.4275568 C13.1428,19.9677462 12.6515059,19.6870076 12.1397412,19.7690341 C11.161702,19.9238447 8.50052549,20.1895644 6.66272157,19.5587689 C6.60927059,19.5402841 6.55695686,19.5206439 6.50691765,19.5021591 C4.49852549,18.6091098 3.17362353,16.8680682 2.59134902,14.3934091 C3.32146667,14.2316667 4.38252549,13.6401515 5.0808,11.6946212 C7.2040549,11.3688258 8.41181961,10.7507386 8.85193725,9.77104167 C9.90048627,7.42808712 11.3846039,6.48304924 13.0199765,6.08331439 C13.8649569,5.87767045 16.0428,5.59462121 17.8862902,6.848125 C18.4014667,7.19933712 18.8142902,7.77121212 19.0610745,8.50020833 C19.4727608,9.71674242 19.1634275,11.0730682 18.1888,12.3173295 C15.6640941,15.5417803 15.0204078,17.1903977 15.2410353,19.341572 C15.3797804,20.6967424 16.1076235,21.8116098 17.2937804,22.4805303 C18.9246039,23.4001515 21.0649176,23.4428977 22.703702,22.4400947 C24.4687216,21.3598864 25.4990745,19.4259091 26.0119765,16.1587121 C26.0119765,16.1517803 26.0131137,16.1460038 26.014251,16.1402273 C25.5934667,15.0403788 24.9247608,13.5292424 24.0979765,12.4732955 C24.158251,13.3848295 24.283349,14.5355114 24.0092706,15.7497348 C23.457702,18.1885795 23.109702,19.4120455 21.7370353,20.4021402 C20.673702,21.1681061 19.2760157,21.0098295 18.3957804,20.5130492 C17.8510353,20.2045833 17.5405647,19.7332197 17.4780157,19.1116667 C17.3586039,17.9482765 17.4939373,16.8553598 19.9560941,13.7117803 C21.5084471,11.7315909 22.0099765,9.2107197 20.8488392,6.97751894 C21.1308784,7.12424242 21.4549961,7.31602273 21.7586431,7.54015152 L21.7586431,7.54015152 C21.7586431,7.54015152 23.3212314,8.54526515 24.9497804,10.6767992 C25.4217412,11.2948864 27.0775843,13.5107576 28.5378196,17.9944886 C25.0919373,26.4501515 20.0448,39.7396023 20.0152314,45.1498864 C19.9856627,50.4781439 24.2799373,54.8382576 29.5886431,54.8682955 C34.8962118,54.8994886 39.238251,50.5878977 39.2689569,45.2607955 C39.2848784,42.330947 37.5801333,36.0749811 34.2047608,26.6638826 C33.4325647,24.5127083 32.6489961,22.4123674 31.9154667,20.4945644 L30.7543294,23.7513636 C33.7134667,31.6732765 37.0399373,41.5603598 37.0194667,45.2480871 C36.9967216,49.330928 33.6691137,52.6350947 29.6011529,52.6108333 C25.5331922,52.5888826 22.2408392,49.2465909 22.2647216,45.1625947 C22.2954275,39.445 28.7800549,23.3539394 30.9613098,18.0349242 C30.9601725,18.0337689 30.9590353,18.0326136 30.9590353,18.0314583 C32.175898,15.0634848 33.1186824,12.8707197 33.4246039,12.1648295 C35.0395059,8.43320076 38.2840941,4.41159091 42.2167216,2.98248106 C39.2689569,5.78640152 40.3106824,7.2686553 41.384251,7.27558712 C42.8331137,7.28251894 43.1265255,7.28482955 44.2910745,7.29176136 C46.0970353,7.45119318 47.9826039,7.66607955 49.2062902,10.3949053 C49.6850745,11.7315909 50.5914667,12.6951136 51.8037804,13.1780303 C51.5376627,13.8388636 51.3284078,14.9745265 52.631702,15.5741288 C51.6297804,17.9124621 49.4496627,20.0844318 44.757349,19.5864962 C44.1375451,19.5206439 43.5871137,19.9700568 43.5222902,20.5904545 C43.4563294,21.2108523 43.9044078,21.766553 44.5219373,21.83125 C44.5674275,21.8358712 44.6106431,21.8393371 44.6561333,21.842803 C44.0568,25.4392614 44.2410353,30.1528977 45.1724471,34.6493371 C46.140251,39.3236932 47.8017804,43.2170644 49.9148,45.8292045 C48.7070353,46.4819508 47.8233882,47.4951515 47.358251,48.8029545 C47.0966824,49.5388826 47.6402902,50.3071591 48.4102118,50.3117803 C48.8742118,50.3140909 49.3109176,50.0264205 49.4746824,49.5631439 C49.9716627,48.1675379 51.1600941,47.6106818 52.1449569,47.3946402 C56.7917804,47.6407197 56.5620549,52.7656439 52.5327608,52.7436932 C50.6551529,52.7321402 41.4740941,52.6801515 39.6385647,52.6685985 C39.0187608,52.6651326 38.5126824,53.1676894 38.5092706,53.791553 C38.5058588,54.4142614 39.0051137,54.9214394 39.6260549,54.9260606 C41.4627216,54.9364583 48.9640549,54.9792045 52.5191137,55 C56.0753098,55.0196402 57.0726824,52.7691098 57.0726824,52.7691098" id="Fill-5" fill="#FFFFFF" mask="url(#mask-2)"></path>
                    </g>
                </g>
            </g>
        </g>
    </g>
</svg>